<svg xmlns="http://www.w3.org/2000/svg" width="255" height="12" fill="none"><path fill="#fff" d="M.972 9H1.98V1.5h4.08V9h1.008V.6H.972V9ZM7.97 9h1.068l.96-2.472h3.696L14.654 9h1.068L12.362.6H11.33L7.97 9Zm2.364-3.336 1.284-3.312c.084-.192.18-.468.228-.636.048.168.144.444.228.636l1.284 3.312h-3.024ZM24.065 4.8c0-2.616-1.776-4.368-4.068-4.368S15.929 2.184 15.929 4.8c0 2.616 1.776 4.368 4.068 4.368s4.068-1.752 4.068-4.368Zm-4.068 3.468c-1.752 0-3.06-1.368-3.06-3.468 0-2.1 1.308-3.468 3.06-3.468s3.06 1.368 3.06 3.468c0 2.1-1.308 3.468-3.06 3.468ZM30.444 8.1h1.128L29.7 5.7l1.872-2.4h-1.128L28.56 5.7l1.884 2.4Zm2.183 0h1.128l-1.872-2.4 1.872-2.4h-1.128l-1.884 2.4 1.884 2.4Zm2.505.9h1.008V5.868h2.508c1.8 0 2.952-.996 2.952-2.64C41.6 1.584 40.448.6 38.648.6h-3.516V9Zm1.008-4.02V1.488h2.484c1.32 0 1.968.66 1.968 1.74 0 1.092-.648 1.752-1.968 1.752H36.14ZM48.24 6.024c0-2.028-1.488-3.144-3.12-3.144-1.62 0-3.108 1.116-3.108 3.144s1.488 3.144 3.108 3.144c1.632 0 3.12-1.116 3.12-3.144Zm-3.12 2.268c-1.188 0-2.136-.924-2.136-2.268 0-1.344.948-2.268 2.136-2.268 1.2 0 2.148.924 2.148 2.268 0 1.344-.948 2.268-2.148 2.268Zm9.68-.636-.732-.444c-.42.636-.924 1.068-1.836 1.068-1.188 0-2.076-.888-2.076-2.256 0-1.392.924-2.256 2.076-2.256.732 0 1.38.36 1.788 1.08l.78-.468c-.456-.936-1.32-1.5-2.58-1.5-1.656 0-3.048 1.296-3.048 3.144 0 1.836 1.296 3.144 3.048 3.144 1.212 0 2.064-.6 2.58-1.512ZM57.312 9h.971V3.9h1.956v-.852h-4.871V3.9h1.944V9Zm4.256-2.82h4.908v-.324c0-1.74-1.104-2.976-2.856-2.976-1.668 0-3 1.296-3 3.144s1.32 3.144 2.952 3.144c1.332 0 2.124-.612 2.64-1.476l-.732-.408c-.408.564-.852 1.056-1.872 1.056-1.2 0-1.98-.948-2.04-2.16Zm2.04-2.52c.972 0 1.836.6 1.896 1.74h-3.936c.192-.984 1.008-1.74 2.04-1.74Zm3.838 5.424c1.056 0 1.428-.588 1.524-2.28l.156-2.904h2.352V9h.972V3.048h-4.164l-.216 3.696c-.06 1.26-.264 1.476-.66 1.476-.24 0-.408-.084-.408-.084V9s.216.084.444.084Zm7.26-2.904h4.907v-.324c0-1.74-1.104-2.976-2.856-2.976-1.668 0-3 1.296-3 3.144s1.32 3.144 2.952 3.144c1.332 0 2.124-.612 2.64-1.476l-.732-.408c-.408.564-.852 1.056-1.872 1.056-1.2 0-1.98-.948-2.04-2.16Zm2.04-2.52c.971 0 1.835.6 1.895 1.74h-3.936c.192-.984 1.008-1.74 2.04-1.74ZM85.63 9l-2.868-3.132 2.736-2.82h-1.212l-2.388 2.46v-2.46h-.972V9h.972V6.228L84.418 9h1.212Zm6.53-2.976c0-2.028-1.487-3.144-3.12-3.144-1.62 0-3.107 1.116-3.107 3.144s1.488 3.144 3.108 3.144c1.632 0 3.12-1.116 3.12-3.144Zm-3.12 2.268c-1.187 0-2.135-.924-2.135-2.268 0-1.344.948-2.268 2.136-2.268 1.2 0 2.148.924 2.148 2.268 0 1.344-.948 2.268-2.148 2.268ZM93.466 9h.948V4.32L96.261 9h.9l1.86-4.668V9h.936V3.048h-1.38l-1.86 4.884-1.86-4.884h-1.392V9Zm7.736-.9h1.128l1.884-2.4-1.884-2.4h-1.128l1.872 2.4-1.872 2.4Zm2.184 0h1.128l1.884-2.4-1.884-2.4h-1.128l1.872 2.4-1.872 2.4Zm4.089.9h1.176V7.812h-1.176V9Zm6.021 0h1.008V1.5h4.08V9h1.008V.6h-6.096V9Zm13.67-2.976c0-2.028-1.488-3.144-3.12-3.144-1.62 0-3.108 1.116-3.108 3.144s1.488 3.144 3.108 3.144c1.632 0 3.12-1.116 3.12-3.144Zm-3.12 2.268c-1.188 0-2.136-.924-2.136-2.268 0-1.344.948-2.268 2.136-2.268 1.2 0 2.148.924 2.148 2.268 0 1.344-.948 2.268-2.148 2.268Zm3.634 2.1h.888V9h4.596v1.392h.888V8.148h-.852v-5.1h-4.284l-.156 2.736c-.06 1.128-.192 1.776-.516 2.364h-.564v2.244Zm1.488-2.244c.288-.6.396-1.116.456-2.34l.108-1.908h2.496v4.248h-3.06Zm5.947-5.1v8.4h.96V8.04c.42.708 1.188 1.128 2.112 1.128 1.644 0 2.832-1.32 2.832-3.144 0-1.848-1.2-3.144-2.784-3.144a2.48 2.48 0 0 0-2.16 1.248v-1.08h-.96Zm2.904.708c1.188 0 2.016.948 2.016 2.268 0 1.32-.828 2.268-2.016 2.268-1.188 0-2.016-.972-2.016-2.268 0-1.296.828-2.268 2.016-2.268Zm10.158 2.268c0-2.028-1.488-3.144-3.12-3.144-1.62 0-3.108 1.116-3.108 3.144s1.488 3.144 3.108 3.144c1.632 0 3.12-1.116 3.12-3.144Zm-3.12 2.268c-1.188 0-2.136-.924-2.136-2.268 0-1.344.948-2.268 2.136-2.268 1.2 0 2.148.924 2.148 2.268 0 1.344-.948 2.268-2.148 2.268Zm7.185.876c1.692 0 2.916-1.236 2.916-2.976s-1.152-2.94-2.736-2.94c-1.152 0-2.004.564-2.436 1.464.216-2.076 1.164-2.916 2.76-3.048 1.032-.084 1.572-.24 1.944-.72l-.564-.564c-.288.324-.84.396-1.296.42-1.092.096-2.34.444-3.012 1.692-.384.696-.624 1.608-.624 2.808 0 2.328 1.068 3.864 3.048 3.864Zm0-.84c-1.128 0-1.968-.876-1.968-2.124 0-1.236.84-2.112 1.968-2.112 1.128 0 1.98.876 1.98 2.112 0 1.248-.852 2.124-1.98 2.124ZM156.43 9h.972V6.3h3.06V9h.972V3.048h-.972V5.46h-3.06V3.048h-.972V9Zm7.256-2.82h4.908v-.324c0-1.74-1.104-2.976-2.856-2.976-1.668 0-3 1.296-3 3.144s1.32 3.144 2.952 3.144c1.332 0 2.124-.612 2.64-1.476l-.732-.408c-.408.564-.852 1.056-1.872 1.056-1.2 0-1.98-.948-2.04-2.16Zm2.04-2.52c.972 0 1.836.6 1.896 1.74h-3.936c.192-.984 1.008-1.74 2.04-1.74Zm4.733 2.52h4.908v-.324c0-1.74-1.104-2.976-2.856-2.976-1.668 0-3 1.296-3 3.144s1.32 3.144 2.952 3.144c1.332 0 2.124-.612 2.64-1.476l-.732-.408c-.408.564-.852 1.056-1.872 1.056-1.2 0-1.98-.948-2.04-2.16Zm2.04-2.52c.972 0 1.836.6 1.896 1.74h-3.936c.192-.984 1.008-1.74 2.04-1.74ZM179.996 9h.972V6.3h3.06V9H185V3.048h-.972V5.46h-3.06V3.048h-.972V9Zm10.523 0h.96c-.132-.456-.18-.816-.18-1.488V4.848c0-1.248-.84-1.968-2.364-1.968-1.38 0-2.316.756-2.316 1.68 0 .132.024.3.072.408l.852-.18c-.024-.072-.024-.12-.024-.168 0-.504.492-.972 1.416-.972.888 0 1.404.396 1.404 1.176v.3l-2.016.312c-1.104.168-2.028.744-2.028 1.908 0 1.068.78 1.824 1.992 1.824.876 0 1.74-.54 2.064-1.344 0 .528.084.912.168 1.176Zm-2.088-.672c-.696 0-1.176-.408-1.176-1.02 0-.624.456-1.008 1.26-1.152l1.824-.288v.24c0 1.152-.708 2.22-1.908 2.22Zm12.849-.468-1.32-4.812h-1.008l-1.308 4.812-1.284-4.812h-.948L197.116 9h1.02l1.32-4.848L200.788 9h1.02l1.704-5.952h-.948L201.28 7.86Zm3.09-5.856h1.14V.84h-1.14v1.164Zm.084 1.044V9h.972V3.048h-.972ZM212.237 9V4.956c0-1.416-.948-2.076-2.088-2.076-.864 0-1.632.48-2.064 1.224V3.048h-.972V9h.972V5.748c0-1.152.816-1.992 1.74-1.992.864 0 1.44.516 1.44 1.452V9h.972Zm1.58 0h.96V6.504l.744-.72L217.585 9h1.104l-2.496-3.888 2.136-2.064h-1.224l-2.328 2.244V.6h-.96V9Zm5.7 0h1.176V7.812h-1.176V9Zm5.573-5.184.168-.876a1.709 1.709 0 0 0-.504-.06c-.78 0-1.404.54-1.692 1.236V3.048h-.972V9h.972V5.856c0-1.152.684-2.1 1.572-2.1.18 0 .336.024.456.06Zm1.208-.768v3.888c0 1.572.996 2.232 2.136 2.232.864 0 1.608-.48 1.992-1.212V9h.972V3.048h-.972v3.168c0 1.236-.78 2.076-1.74 2.076-.864 0-1.428-.516-1.428-1.476V3.048h-.96ZM232.571 9h1.176V7.812h-1.176V9Zm7.438 0h.996V.6h-.9c-.372.72-.9 1.056-1.86 1.056v.9c.828 0 1.356-.168 1.764-.636V9Zm5.31.168c1.644 0 2.808-.996 2.808-2.496 0-1.02-.6-1.788-1.416-2.172.72-.384 1.164-1.092 1.164-1.884 0-1.284-1.092-2.184-2.556-2.184s-2.556.9-2.556 2.184c0 .792.444 1.5 1.164 1.884-.816.384-1.416 1.152-1.416 2.172 0 1.5 1.164 2.496 2.808 2.496Zm0-5.028c-.912 0-1.584-.552-1.584-1.464 0-.912.72-1.452 1.584-1.452.864 0 1.584.54 1.584 1.452 0 .912-.672 1.464-1.584 1.464Zm0 4.176c-1.068 0-1.824-.672-1.824-1.68s.828-1.68 1.824-1.68c.996 0 1.824.672 1.824 1.68s-.756 1.68-1.824 1.68Zm6.135-1.164h.768V5.004h2.148v-.768h-2.148V2.088h-.768v2.148h-2.148v.768h2.148v2.148Z" opacity=".8"/></svg>